<mxfile host="app.diagrams.net" modified="2024-01-24T10:28:42.751Z" agent="Mozilla/5.0 (Windows NT 10.0; Win64; x64; rv:121.0) Gecko/20100101 Firefox/121.0" etag="aOo94JPpMejPzN0dI3jr" version="23.0.0" type="device">
  <diagram name="Page-1" id="WCJ2Mj0zXInQiujwe4LX">
    <mxGraphModel dx="1750" dy="818" grid="1" gridSize="10" guides="1" tooltips="1" connect="1" arrows="1" fold="1" page="1" pageScale="1" pageWidth="827" pageHeight="1169" math="0" shadow="0">
      <root>
        <mxCell id="0" />
        <mxCell id="1" parent="0" />
        <mxCell id="ONZpi1p6eVOtaz8gOTrK-5" value="" style="edgeStyle=orthogonalEdgeStyle;rounded=0;orthogonalLoop=1;jettySize=auto;html=1;" parent="1" source="ONZpi1p6eVOtaz8gOTrK-1" target="ONZpi1p6eVOtaz8gOTrK-4" edge="1">
          <mxGeometry relative="1" as="geometry" />
        </mxCell>
        <mxCell id="ONZpi1p6eVOtaz8gOTrK-1" value="START" style="ellipse;whiteSpace=wrap;html=1;rounded=0;" parent="1" vertex="1">
          <mxGeometry x="354" y="80" width="120" height="80" as="geometry" />
        </mxCell>
        <mxCell id="ONZpi1p6eVOtaz8gOTrK-4" value="Draw main window with user interface" style="whiteSpace=wrap;html=1;rounded=0;" parent="1" vertex="1">
          <mxGeometry x="354" y="250" width="120" height="60" as="geometry" />
        </mxCell>
        <mxCell id="ONZpi1p6eVOtaz8gOTrK-18" style="edgeStyle=orthogonalEdgeStyle;rounded=0;orthogonalLoop=1;jettySize=auto;html=1;entryX=0.5;entryY=0;entryDx=0;entryDy=0;" parent="1" source="ONZpi1p6eVOtaz8gOTrK-9" target="ONZpi1p6eVOtaz8gOTrK-17" edge="1">
          <mxGeometry relative="1" as="geometry" />
        </mxCell>
        <mxCell id="ONZpi1p6eVOtaz8gOTrK-9" value="&lt;div&gt;Enter input into&amp;nbsp;&lt;/div&gt;&lt;div&gt;the input field&lt;/div&gt;" style="shape=parallelogram;perimeter=parallelogramPerimeter;whiteSpace=wrap;html=1;fixedSize=1;rounded=0;" parent="1" vertex="1">
          <mxGeometry x="354" y="450" width="120" height="60" as="geometry" />
        </mxCell>
        <mxCell id="ONZpi1p6eVOtaz8gOTrK-12" value="" style="edgeStyle=orthogonalEdgeStyle;rounded=0;orthogonalLoop=1;jettySize=auto;html=1;exitX=0.5;exitY=1;exitDx=0;exitDy=0;" parent="1" source="ONZpi1p6eVOtaz8gOTrK-4" target="ONZpi1p6eVOtaz8gOTrK-11" edge="1">
          <mxGeometry relative="1" as="geometry">
            <mxPoint x="414.16666666666674" y="359.9999999999999" as="targetPoint" />
            <mxPoint x="414" y="310" as="sourcePoint" />
          </mxGeometry>
        </mxCell>
        <mxCell id="ONZpi1p6eVOtaz8gOTrK-13" value="" style="edgeStyle=orthogonalEdgeStyle;rounded=0;orthogonalLoop=1;jettySize=auto;html=1;" parent="1" source="ONZpi1p6eVOtaz8gOTrK-11" target="ONZpi1p6eVOtaz8gOTrK-9" edge="1">
          <mxGeometry relative="1" as="geometry" />
        </mxCell>
        <mxCell id="ONZpi1p6eVOtaz8gOTrK-11" value="&lt;div&gt;Select encoder/decoder&lt;/div&gt;" style="shape=parallelogram;perimeter=parallelogramPerimeter;whiteSpace=wrap;html=1;fixedSize=1;rounded=0;" parent="1" vertex="1">
          <mxGeometry x="354" y="350" width="120" height="60" as="geometry" />
        </mxCell>
        <mxCell id="ONZpi1p6eVOtaz8gOTrK-19" style="edgeStyle=orthogonalEdgeStyle;rounded=0;orthogonalLoop=1;jettySize=auto;html=1;exitX=0;exitY=0.5;exitDx=0;exitDy=0;entryX=0.5;entryY=0;entryDx=0;entryDy=0;" parent="1" source="ONZpi1p6eVOtaz8gOTrK-17" target="6sKMiRtjvFBWftzo08Co-19" edge="1">
          <mxGeometry relative="1" as="geometry">
            <mxPoint x="180" y="660" as="targetPoint" />
          </mxGeometry>
        </mxCell>
        <mxCell id="ONZpi1p6eVOtaz8gOTrK-17" value="&lt;div&gt;Did user press endode&lt;/div&gt;&lt;div&gt;&amp;nbsp;or decode?&lt;/div&gt;" style="rhombus;whiteSpace=wrap;html=1;rounded=0;" parent="1" vertex="1">
          <mxGeometry x="357" y="550" width="114" height="135" as="geometry" />
        </mxCell>
        <mxCell id="ONZpi1p6eVOtaz8gOTrK-22" value="" style="edgeStyle=orthogonalEdgeStyle;rounded=0;orthogonalLoop=1;jettySize=auto;html=1;" parent="1" target="ONZpi1p6eVOtaz8gOTrK-21" edge="1">
          <mxGeometry relative="1" as="geometry">
            <mxPoint x="180" y="719.9999999999998" as="sourcePoint" />
          </mxGeometry>
        </mxCell>
        <mxCell id="ONZpi1p6eVOtaz8gOTrK-21" value="Display encoded output" style="shape=parallelogram;perimeter=parallelogramPerimeter;whiteSpace=wrap;html=1;fixedSize=1;rounded=0;" parent="1" vertex="1">
          <mxGeometry x="120" y="800" width="120" height="60" as="geometry" />
        </mxCell>
        <mxCell id="ONZpi1p6eVOtaz8gOTrK-23" value="" style="edgeStyle=orthogonalEdgeStyle;rounded=0;orthogonalLoop=1;jettySize=auto;html=1;" parent="1" source="6sKMiRtjvFBWftzo08Co-44" target="ONZpi1p6eVOtaz8gOTrK-25" edge="1">
          <mxGeometry relative="1" as="geometry">
            <mxPoint x="610" y="720" as="sourcePoint" />
          </mxGeometry>
        </mxCell>
        <mxCell id="ONZpi1p6eVOtaz8gOTrK-25" value="Display decoded output" style="shape=parallelogram;perimeter=parallelogramPerimeter;whiteSpace=wrap;html=1;fixedSize=1;rounded=0;" parent="1" vertex="1">
          <mxGeometry x="550" y="800" width="120" height="60" as="geometry" />
        </mxCell>
        <mxCell id="zs0wMCMAKSI-vT-fxzFe-1" value="END" style="ellipse;whiteSpace=wrap;html=1;hachureGap=4;rounded=0;" parent="1" vertex="1">
          <mxGeometry x="334" y="930" width="160" height="100" as="geometry" />
        </mxCell>
        <mxCell id="zs0wMCMAKSI-vT-fxzFe-9" value="" style="edgeStyle=orthogonalEdgeStyle;rounded=0;orthogonalLoop=1;jettySize=auto;html=1;entryX=0.5;entryY=0;entryDx=0;entryDy=0;" parent="1" target="zs0wMCMAKSI-vT-fxzFe-1" edge="1">
          <mxGeometry relative="1" as="geometry">
            <mxPoint x="180" y="860" as="sourcePoint" />
            <mxPoint x="170" y="1080" as="targetPoint" />
            <Array as="points">
              <mxPoint x="180" y="900" />
              <mxPoint x="414" y="900" />
            </Array>
          </mxGeometry>
        </mxCell>
        <mxCell id="zs0wMCMAKSI-vT-fxzFe-12" value="" style="edgeStyle=orthogonalEdgeStyle;rounded=0;orthogonalLoop=1;jettySize=auto;html=1;entryX=0.5;entryY=0;entryDx=0;entryDy=0;exitX=0.5;exitY=1;exitDx=0;exitDy=0;" parent="1" source="ONZpi1p6eVOtaz8gOTrK-25" target="zs0wMCMAKSI-vT-fxzFe-1" edge="1">
          <mxGeometry relative="1" as="geometry">
            <mxPoint x="570" y="880" as="sourcePoint" />
            <mxPoint x="804" y="950" as="targetPoint" />
            <Array as="points">
              <mxPoint x="610" y="900" />
              <mxPoint x="414" y="900" />
            </Array>
          </mxGeometry>
        </mxCell>
        <mxCell id="6sKMiRtjvFBWftzo08Co-1" style="edgeStyle=orthogonalEdgeStyle;rounded=0;orthogonalLoop=1;jettySize=auto;html=1;exitX=0.5;exitY=1;exitDx=0;exitDy=0;" edge="1" parent="1">
          <mxGeometry relative="1" as="geometry">
            <mxPoint x="130" y="1840" as="targetPoint" />
            <mxPoint x="129.58" y="1780" as="sourcePoint" />
          </mxGeometry>
        </mxCell>
        <mxCell id="6sKMiRtjvFBWftzo08Co-21" style="edgeStyle=orthogonalEdgeStyle;rounded=0;orthogonalLoop=1;jettySize=auto;html=1;exitX=1;exitY=0.5;exitDx=0;exitDy=0;" edge="1" parent="1" source="6sKMiRtjvFBWftzo08Co-3">
          <mxGeometry relative="1" as="geometry">
            <mxPoint x="300" y="1800" as="targetPoint" />
            <Array as="points">
              <mxPoint x="241" y="1880" />
              <mxPoint x="241" y="1800" />
            </Array>
          </mxGeometry>
        </mxCell>
        <mxCell id="6sKMiRtjvFBWftzo08Co-3" value="is Base64 selected?" style="rhombus;whiteSpace=wrap;html=1;" vertex="1" parent="1">
          <mxGeometry x="90" y="1840" width="80" height="80" as="geometry" />
        </mxCell>
        <mxCell id="6sKMiRtjvFBWftzo08Co-5" style="edgeStyle=orthogonalEdgeStyle;rounded=0;orthogonalLoop=1;jettySize=auto;html=1;exitX=0.5;exitY=1;exitDx=0;exitDy=0;" edge="1" parent="1">
          <mxGeometry relative="1" as="geometry">
            <mxPoint x="130" y="1980" as="targetPoint" />
            <mxPoint x="129.58" y="1920" as="sourcePoint" />
          </mxGeometry>
        </mxCell>
        <mxCell id="6sKMiRtjvFBWftzo08Co-24" style="edgeStyle=orthogonalEdgeStyle;rounded=0;orthogonalLoop=1;jettySize=auto;html=1;exitX=1;exitY=0.5;exitDx=0;exitDy=0;" edge="1" parent="1" source="6sKMiRtjvFBWftzo08Co-6">
          <mxGeometry relative="1" as="geometry">
            <mxPoint x="260" y="1940" as="targetPoint" />
            <Array as="points">
              <mxPoint x="180" y="2020" />
              <mxPoint x="180" y="1940" />
            </Array>
          </mxGeometry>
        </mxCell>
        <mxCell id="6sKMiRtjvFBWftzo08Co-6" value="is Decimal ASCII selected?" style="rhombus;whiteSpace=wrap;html=1;" vertex="1" parent="1">
          <mxGeometry x="90" y="1980" width="80" height="80" as="geometry" />
        </mxCell>
        <mxCell id="6sKMiRtjvFBWftzo08Co-7" style="edgeStyle=orthogonalEdgeStyle;rounded=0;orthogonalLoop=1;jettySize=auto;html=1;exitX=0.5;exitY=1;exitDx=0;exitDy=0;" edge="1" parent="1">
          <mxGeometry relative="1" as="geometry">
            <mxPoint x="130" y="2120" as="targetPoint" />
            <mxPoint x="129.58" y="2060" as="sourcePoint" />
          </mxGeometry>
        </mxCell>
        <mxCell id="6sKMiRtjvFBWftzo08Co-8" value="is Binary selected?" style="rhombus;whiteSpace=wrap;html=1;" vertex="1" parent="1">
          <mxGeometry x="90" y="2120" width="80" height="80" as="geometry" />
        </mxCell>
        <mxCell id="6sKMiRtjvFBWftzo08Co-14" style="edgeStyle=orthogonalEdgeStyle;rounded=0;orthogonalLoop=1;jettySize=auto;html=1;exitX=0.5;exitY=1;exitDx=0;exitDy=0;" edge="1" parent="1">
          <mxGeometry relative="1" as="geometry">
            <mxPoint x="130" y="2260" as="targetPoint" />
            <mxPoint x="129.58" y="2200" as="sourcePoint" />
          </mxGeometry>
        </mxCell>
        <mxCell id="6sKMiRtjvFBWftzo08Co-15" value="is&lt;div&gt;CaesarCipher&lt;/div&gt; selected?" style="rhombus;whiteSpace=wrap;html=1;" vertex="1" parent="1">
          <mxGeometry x="90" y="2260" width="80" height="80" as="geometry" />
        </mxCell>
        <mxCell id="6sKMiRtjvFBWftzo08Co-16" style="edgeStyle=orthogonalEdgeStyle;rounded=0;orthogonalLoop=1;jettySize=auto;html=1;exitX=0.5;exitY=1;exitDx=0;exitDy=0;" edge="1" parent="1">
          <mxGeometry relative="1" as="geometry">
            <mxPoint x="130" y="2400" as="targetPoint" />
            <mxPoint x="129.58" y="2340" as="sourcePoint" />
          </mxGeometry>
        </mxCell>
        <mxCell id="6sKMiRtjvFBWftzo08Co-26" style="edgeStyle=orthogonalEdgeStyle;rounded=0;orthogonalLoop=1;jettySize=auto;html=1;exitX=0.5;exitY=1;exitDx=0;exitDy=0;" edge="1" parent="1" source="6sKMiRtjvFBWftzo08Co-17">
          <mxGeometry relative="1" as="geometry">
            <mxPoint x="130" y="2520" as="targetPoint" />
          </mxGeometry>
        </mxCell>
        <mxCell id="6sKMiRtjvFBWftzo08Co-17" value="is Reverse selected?" style="rhombus;whiteSpace=wrap;html=1;" vertex="1" parent="1">
          <mxGeometry x="90" y="2400" width="80" height="80" as="geometry" />
        </mxCell>
        <mxCell id="6sKMiRtjvFBWftzo08Co-18" value="ENCODER" style="shape=process;whiteSpace=wrap;html=1;backgroundOutline=1;" vertex="1" parent="1">
          <mxGeometry x="70" y="1724" width="120" height="60" as="geometry" />
        </mxCell>
        <mxCell id="6sKMiRtjvFBWftzo08Co-19" value="ENCODER" style="shape=process;whiteSpace=wrap;html=1;backgroundOutline=1;" vertex="1" parent="1">
          <mxGeometry x="120" y="670" width="120" height="60" as="geometry" />
        </mxCell>
        <mxCell id="6sKMiRtjvFBWftzo08Co-43" style="edgeStyle=orthogonalEdgeStyle;rounded=0;orthogonalLoop=1;jettySize=auto;html=1;exitX=1;exitY=0.5;exitDx=0;exitDy=0;entryX=0.5;entryY=0;entryDx=0;entryDy=0;" edge="1" parent="1" source="6sKMiRtjvFBWftzo08Co-22" target="6sKMiRtjvFBWftzo08Co-41">
          <mxGeometry relative="1" as="geometry">
            <Array as="points">
              <mxPoint x="780" y="1800" />
              <mxPoint x="780" y="3110" />
              <mxPoint x="434" y="3110" />
            </Array>
          </mxGeometry>
        </mxCell>
        <mxCell id="6sKMiRtjvFBWftzo08Co-22" value="The encoder is loaded from the Base64 class" style="rounded=0;whiteSpace=wrap;html=1;" vertex="1" parent="1">
          <mxGeometry x="300" y="1770" width="120" height="60" as="geometry" />
        </mxCell>
        <mxCell id="6sKMiRtjvFBWftzo08Co-28" style="edgeStyle=orthogonalEdgeStyle;rounded=0;orthogonalLoop=1;jettySize=auto;html=1;exitX=0.5;exitY=1;exitDx=0;exitDy=0;" edge="1" parent="1" source="6sKMiRtjvFBWftzo08Co-27">
          <mxGeometry relative="1" as="geometry">
            <mxPoint x="129.83333333333337" y="2620" as="targetPoint" />
          </mxGeometry>
        </mxCell>
        <mxCell id="6sKMiRtjvFBWftzo08Co-27" value="var curchar = 0" style="rounded=0;whiteSpace=wrap;html=1;" vertex="1" parent="1">
          <mxGeometry x="70" y="2520" width="120" height="60" as="geometry" />
        </mxCell>
        <mxCell id="6sKMiRtjvFBWftzo08Co-30" style="edgeStyle=orthogonalEdgeStyle;rounded=0;orthogonalLoop=1;jettySize=auto;html=1;exitX=0.5;exitY=1;exitDx=0;exitDy=0;" edge="1" parent="1" source="6sKMiRtjvFBWftzo08Co-29">
          <mxGeometry relative="1" as="geometry">
            <mxPoint x="129.83333333333337" y="2720" as="targetPoint" />
          </mxGeometry>
        </mxCell>
        <mxCell id="6sKMiRtjvFBWftzo08Co-29" value="Get current selected character from input" style="rounded=0;whiteSpace=wrap;html=1;" vertex="1" parent="1">
          <mxGeometry x="70" y="2620" width="120" height="60" as="geometry" />
        </mxCell>
        <mxCell id="6sKMiRtjvFBWftzo08Co-34" style="edgeStyle=orthogonalEdgeStyle;rounded=0;orthogonalLoop=1;jettySize=auto;html=1;exitX=1;exitY=0.5;exitDx=0;exitDy=0;entryX=1;entryY=0.5;entryDx=0;entryDy=0;" edge="1" parent="1" source="6sKMiRtjvFBWftzo08Co-31" target="6sKMiRtjvFBWftzo08Co-29">
          <mxGeometry relative="1" as="geometry">
            <Array as="points">
              <mxPoint x="220" y="2880" />
              <mxPoint x="220" y="2650" />
            </Array>
          </mxGeometry>
        </mxCell>
        <mxCell id="6sKMiRtjvFBWftzo08Co-36" value="" style="edgeStyle=orthogonalEdgeStyle;rounded=0;orthogonalLoop=1;jettySize=auto;html=1;" edge="1" parent="1" source="6sKMiRtjvFBWftzo08Co-31">
          <mxGeometry relative="1" as="geometry">
            <mxPoint x="130" y="2980" as="targetPoint" />
          </mxGeometry>
        </mxCell>
        <mxCell id="6sKMiRtjvFBWftzo08Co-31" value="Have al the characters been checked?" style="rhombus;whiteSpace=wrap;html=1;" vertex="1" parent="1">
          <mxGeometry x="80" y="2830" width="100" height="100" as="geometry" />
        </mxCell>
        <mxCell id="6sKMiRtjvFBWftzo08Co-33" style="edgeStyle=orthogonalEdgeStyle;rounded=0;orthogonalLoop=1;jettySize=auto;html=1;exitX=0.5;exitY=1;exitDx=0;exitDy=0;entryX=0.5;entryY=0;entryDx=0;entryDy=0;" edge="1" parent="1" source="6sKMiRtjvFBWftzo08Co-32" target="6sKMiRtjvFBWftzo08Co-31">
          <mxGeometry relative="1" as="geometry" />
        </mxCell>
        <mxCell id="6sKMiRtjvFBWftzo08Co-32" value="Add 1 to curchar" style="rounded=0;whiteSpace=wrap;html=1;" vertex="1" parent="1">
          <mxGeometry x="70" y="2720" width="120" height="60" as="geometry" />
        </mxCell>
        <mxCell id="6sKMiRtjvFBWftzo08Co-39" value="" style="edgeStyle=orthogonalEdgeStyle;rounded=0;orthogonalLoop=1;jettySize=auto;html=1;" edge="1" parent="1" source="6sKMiRtjvFBWftzo08Co-37" target="6sKMiRtjvFBWftzo08Co-38">
          <mxGeometry relative="1" as="geometry" />
        </mxCell>
        <mxCell id="6sKMiRtjvFBWftzo08Co-37" value="Reverse the order of the characters" style="rounded=0;whiteSpace=wrap;html=1;" vertex="1" parent="1">
          <mxGeometry x="70" y="2980" width="120" height="60" as="geometry" />
        </mxCell>
        <mxCell id="6sKMiRtjvFBWftzo08Co-42" value="" style="edgeStyle=orthogonalEdgeStyle;rounded=0;orthogonalLoop=1;jettySize=auto;html=1;" edge="1" parent="1" source="6sKMiRtjvFBWftzo08Co-38" target="6sKMiRtjvFBWftzo08Co-41">
          <mxGeometry relative="1" as="geometry" />
        </mxCell>
        <mxCell id="6sKMiRtjvFBWftzo08Co-38" value="Combine them into one string" style="whiteSpace=wrap;html=1;rounded=0;" vertex="1" parent="1">
          <mxGeometry x="70" y="3080" width="120" height="60" as="geometry" />
        </mxCell>
        <mxCell id="6sKMiRtjvFBWftzo08Co-41" value="RETURN" style="ellipse;whiteSpace=wrap;html=1;" vertex="1" parent="1">
          <mxGeometry x="374" y="3240" width="120" height="80" as="geometry" />
        </mxCell>
        <mxCell id="6sKMiRtjvFBWftzo08Co-45" value="" style="edgeStyle=orthogonalEdgeStyle;rounded=0;orthogonalLoop=1;jettySize=auto;html=1;exitX=1;exitY=0.5;exitDx=0;exitDy=0;entryX=0.5;entryY=0;entryDx=0;entryDy=0;" edge="1" parent="1" source="ONZpi1p6eVOtaz8gOTrK-17" target="6sKMiRtjvFBWftzo08Co-44">
          <mxGeometry relative="1" as="geometry">
            <mxPoint x="471" y="618" as="sourcePoint" />
            <mxPoint x="610" y="660" as="targetPoint" />
          </mxGeometry>
        </mxCell>
        <mxCell id="6sKMiRtjvFBWftzo08Co-46" value="" style="edgeStyle=orthogonalEdgeStyle;rounded=0;orthogonalLoop=1;jettySize=auto;html=1;" edge="1" parent="1" target="6sKMiRtjvFBWftzo08Co-44">
          <mxGeometry relative="1" as="geometry">
            <mxPoint x="610" y="720" as="sourcePoint" />
            <mxPoint x="610" y="800" as="targetPoint" />
          </mxGeometry>
        </mxCell>
        <mxCell id="6sKMiRtjvFBWftzo08Co-44" value="DECODER" style="shape=process;whiteSpace=wrap;html=1;backgroundOutline=1;" vertex="1" parent="1">
          <mxGeometry x="550" y="670" width="120" height="60" as="geometry" />
        </mxCell>
      </root>
    </mxGraphModel>
  </diagram>
</mxfile>
